<svg xmlns="http://www.w3.org/2000/svg" xmlns:xlink="http://www.w3.org/1999/xlink" width="320" zoomAndPan="magnify" viewBox="0 0 1440 809.999993" height="180" preserveAspectRatio="xMidYMid meet" version="1.0"><defs><g/></defs><g fill="#d9d9d9" fill-opacity="1"><g transform="translate(469.004599, 462.406607)"><g><path d="M 93.828125 -81.625 C 93.828125 -75.707031 92.429688 -70.128906 89.640625 -64.890625 C 86.859375 -59.648438 82.398438 -55.382812 76.265625 -52.09375 C 70.128906 -48.8125 62.269531 -47.171875 52.6875 -47.171875 L 31.609375 -47.171875 L 31.609375 0 L 12.546875 0 L 12.546875 -116.234375 L 52.6875 -116.234375 C 61.601562 -116.234375 69.15625 -114.703125 75.34375 -111.640625 C 81.53125 -108.578125 86.15625 -104.421875 89.21875 -99.171875 C 92.289062 -93.929688 93.828125 -88.082031 93.828125 -81.625 Z M 52.6875 -62.71875 C 59.9375 -62.71875 65.34375 -64.363281 68.90625 -67.65625 C 72.476562 -70.945312 74.265625 -75.601562 74.265625 -81.625 C 74.265625 -94.332031 67.070312 -100.6875 52.6875 -100.6875 L 31.609375 -100.6875 L 31.609375 -62.71875 Z M 52.6875 -62.71875 "/></g></g></g><g fill="#d9d9d9" fill-opacity="1"><g transform="translate(555.974119, 462.406607)"><g><path d="M 31.609375 -123.765625 L 31.609375 0 L 12.546875 0 L 12.546875 -123.765625 Z M 31.609375 -123.765625 "/></g></g></g><g fill="#d9d9d9" fill-opacity="1"><g transform="translate(587.583877, 462.406607)"><g><path d="M 6.1875 -46.5 C 6.1875 -55.75 8.109375 -63.941406 11.953125 -71.078125 C 15.804688 -78.210938 21.046875 -83.757812 27.671875 -87.71875 C 34.304688 -91.675781 41.640625 -93.65625 49.671875 -93.65625 C 56.921875 -93.65625 63.25 -92.234375 68.65625 -89.390625 C 74.0625 -86.546875 78.382812 -83.007812 81.625 -78.78125 L 81.625 -92.15625 L 100.859375 -92.15625 L 100.859375 0 L 81.625 0 L 81.625 -13.71875 C 78.382812 -9.363281 73.976562 -5.738281 68.40625 -2.84375 C 62.832031 0.0507812 56.476562 1.5 49.34375 1.5 C 41.425781 1.5 34.175781 -0.53125 27.59375 -4.59375 C 21.019531 -8.664062 15.804688 -14.351562 11.953125 -21.65625 C 8.109375 -28.957031 6.1875 -37.238281 6.1875 -46.5 Z M 81.625 -46.15625 C 81.625 -52.507812 80.3125 -58.03125 77.6875 -62.71875 C 75.0625 -67.40625 71.628906 -70.972656 67.390625 -73.421875 C 63.160156 -75.878906 58.59375 -77.109375 53.6875 -77.109375 C 48.78125 -77.109375 44.207031 -75.90625 39.96875 -73.5 C 35.738281 -71.101562 32.3125 -67.59375 29.6875 -62.96875 C 27.0625 -58.34375 25.75 -52.851562 25.75 -46.5 C 25.75 -40.144531 27.0625 -34.566406 29.6875 -29.765625 C 32.3125 -24.972656 35.769531 -21.320312 40.0625 -18.8125 C 44.351562 -16.300781 48.894531 -15.046875 53.6875 -15.046875 C 58.59375 -15.046875 63.160156 -16.269531 67.390625 -18.71875 C 71.628906 -21.175781 75.0625 -24.773438 77.6875 -29.515625 C 80.3125 -34.253906 81.625 -39.800781 81.625 -46.15625 Z M 81.625 -46.15625 "/></g></g></g><g fill="#d9d9d9" fill-opacity="1"><g transform="translate(688.43516, 462.406607)"><g><path d="M 59.046875 -93.65625 C 66.285156 -93.65625 72.773438 -92.148438 78.515625 -89.140625 C 84.265625 -86.128906 88.753906 -81.671875 91.984375 -75.765625 C 95.222656 -69.859375 96.84375 -62.722656 96.84375 -54.359375 L 96.84375 0 L 77.9375 0 L 77.9375 -51.515625 C 77.9375 -59.765625 75.875 -66.09375 71.75 -70.5 C 67.625 -74.90625 61.992188 -77.109375 54.859375 -77.109375 C 47.722656 -77.109375 42.0625 -74.90625 37.875 -70.5 C 33.695312 -66.09375 31.609375 -59.765625 31.609375 -51.515625 L 31.609375 0 L 12.546875 0 L 12.546875 -92.15625 L 31.609375 -92.15625 L 31.609375 -81.625 C 34.734375 -85.40625 38.71875 -88.351562 43.5625 -90.46875 C 48.414062 -92.59375 53.578125 -93.65625 59.046875 -93.65625 Z M 59.046875 -93.65625 "/></g></g></g><g fill="#d9d9d9" fill-opacity="1"><g transform="translate(784.436163, 462.406607)"><g><path d="M 31.609375 -116.234375 L 31.609375 0 L 12.546875 0 L 12.546875 -116.234375 Z M 31.609375 -116.234375 "/></g></g></g><g fill="#d9d9d9" fill-opacity="1"><g transform="translate(816.045933, 462.406607)"><g><path d="M 65.5625 1.171875 C 54.75 1.171875 44.796875 -1.363281 35.703125 -6.4375 C 26.617188 -11.507812 19.425781 -18.585938 14.125 -27.671875 C 8.832031 -36.765625 6.1875 -47 6.1875 -58.375 C 6.1875 -69.75 8.832031 -79.953125 14.125 -88.984375 C 19.425781 -98.015625 26.617188 -105.066406 35.703125 -110.140625 C 44.796875 -115.210938 54.75 -117.75 65.5625 -117.75 C 76.488281 -117.75 86.492188 -115.210938 95.578125 -110.140625 C 104.671875 -105.066406 111.835938 -98.015625 117.078125 -88.984375 C 122.316406 -79.953125 124.9375 -69.75 124.9375 -58.375 C 124.9375 -47 122.316406 -36.765625 117.078125 -27.671875 C 111.835938 -18.585938 104.671875 -11.507812 95.578125 -6.4375 C 86.492188 -1.363281 76.488281 1.171875 65.5625 1.171875 Z M 65.5625 -15.390625 C 73.257812 -15.390625 80.117188 -17.144531 86.140625 -20.65625 C 92.160156 -24.164062 96.867188 -29.179688 100.265625 -35.703125 C 103.671875 -42.222656 105.375 -49.78125 105.375 -58.375 C 105.375 -66.957031 103.671875 -74.484375 100.265625 -80.953125 C 96.867188 -87.421875 92.160156 -92.378906 86.140625 -95.828125 C 80.117188 -99.285156 73.257812 -101.015625 65.5625 -101.015625 C 57.863281 -101.015625 51.003906 -99.285156 44.984375 -95.828125 C 38.960938 -92.378906 34.25 -87.421875 30.84375 -80.953125 C 27.445312 -74.484375 25.75 -66.957031 25.75 -58.375 C 25.75 -49.78125 27.445312 -42.222656 30.84375 -35.703125 C 34.25 -29.179688 38.960938 -24.164062 44.984375 -20.65625 C 51.003906 -17.144531 57.863281 -15.390625 65.5625 -15.390625 Z M 65.5625 -15.390625 "/></g></g></g><path stroke-linecap="butt" transform="matrix(0.565549, 0.492599, -0.492599, 0.565549, 890.245401, 426.129719)" fill="none" stroke-linejoin="miter" d="M 0.000465885 14.502866 L 70.779618 14.498476 " stroke="#545454" stroke-width="29" stroke-opacity="1" stroke-miterlimit="4"/><path stroke-linecap="butt" transform="matrix(0.49121, -0.566756, 0.566756, 0.49121, 899.540361, 463.240965)" fill="none" stroke-linejoin="miter" d="M -0.000207994 14.499282 L 99.198943 14.497346 " stroke="#545454" stroke-width="29" stroke-opacity="1" stroke-miterlimit="4"/></svg>